HIERARCHY
ROOT Hips
{
	OFFSET 0.000000 0.000000 0.000000 
	CHANNELS 6 Xposition Yposition Zposition Zrotation Yrotation Xrotation
	JOINT LeftUpLeg
	{
		OFFSET 1.363060 -1.794630 0.839290 
		CHANNELS 3 Zrotation Yrotation Xrotation
		JOINT LeftLeg
		{
			OFFSET 2.448110 -6.726130 0.000000 
			CHANNELS 3 Zrotation Yrotation Xrotation
			JOINT LeftFoot
			{
				OFFSET 2.562200 -7.039590 0.000000 
				CHANNELS 3 Zrotation Yrotation Xrotation
				JOINT LeftToeBase
				{
					OFFSET 0.157640 -0.433110 2.322550 
					CHANNELS 3 Zrotation Yrotation Xrotation
					End Site
					{
						OFFSET 0.000000 0.000000 0.000000 
					}
				}
			}
		}
	}
	JOINT RightUpLeg
	{
		OFFSET -1.305520 -1.794630 0.839290 
		CHANNELS 3 Zrotation Yrotation Xrotation
		JOINT RightLeg
		{
			OFFSET -2.542530 -6.985550 0.000000 
			CHANNELS 3 Zrotation Yrotation Xrotation
			JOINT RightFoot
			{
				OFFSET -2.568260 -7.056230 0.000000 
				CHANNELS 3 Zrotation Yrotation Xrotation
				JOINT RightToeBase
				{
					OFFSET -0.164730 -0.452590 2.363150 
					CHANNELS 3 Zrotation Yrotation Xrotation
					End Site
					{
						OFFSET 0.000000 0.000000 0.000000 
					}
				}
			}
		}
	}
	JOINT Spine
	{
		OFFSET 0.028270 2.035590 -0.193380 
		CHANNELS 3 Zrotation Yrotation Xrotation
		JOINT Spine1
		{
			OFFSET 0.056720 2.048850 -0.042750 
			CHANNELS 3 Zrotation Yrotation Xrotation
			JOINT Neck1
			{
				OFFSET -0.054170 1.746240 0.172020 
				CHANNELS 3 Zrotation Yrotation Xrotation
				JOINT Head
				{
					OFFSET 0.104070 1.761360 -0.123970 
					CHANNELS 3 Zrotation Yrotation Xrotation
					End Site
					{
						OFFSET 0.000000 0.000000 0.000000 
					}
				}
			}
			JOINT LeftArm
			{
				OFFSET 3.362410 1.200890 -0.311210 
				CHANNELS 3 Zrotation Yrotation Xrotation
				JOINT LeftForeArm
				{
					OFFSET 4.983000 -0.000000 -0.000000 
					CHANNELS 3 Zrotation Yrotation Xrotation
					JOINT LeftHand
					{
						OFFSET 3.483560 -0.000000 -0.000000 
						CHANNELS 3 Zrotation Yrotation Xrotation
						JOINT LeftHandIndex1
						{
							OFFSET 0.715260 -0.000000 -0.000000 
							CHANNELS 3 Zrotation Yrotation Xrotation
							End Site
							{
								OFFSET 0.000000 0.000000 0.000000 
							}
						}
					}
				}
			}
			JOINT RightArm
			{
				OFFSET -3.136600 1.374050 -0.404650 
				CHANNELS 3 Zrotation Yrotation Xrotation
				JOINT RightForeArm
				{
					OFFSET -5.241900 -0.000000 -0.000000 
					CHANNELS 3 Zrotation Yrotation Xrotation
					JOINT RightHand
					{
						OFFSET -3.444170 -0.000000 -0.000000 
						CHANNELS 3 Zrotation Yrotation Xrotation
						JOINT RightHandIndex1
						{
							OFFSET -0.622530 -0.000000 -0.000000 
							CHANNELS 3 Zrotation Yrotation Xrotation
							End Site
							{
								OFFSET 0.000000 0.000000 0.000000 
							}
						}
					}
				}
			}
		}
	}
}
MOTION
Frames: 13
Frame Time: 0.041667
-8.060000 26.971300 0.075700 -125.294000 87.630800 -121.241000 -14.001900 -7.144600 -7.076700 2.396200 9.646700 27.840000 2.284700 -4.440100 -27.569500 1.787400 8.408500 23.962000 17.275900 5.315800 -5.131400 -1.398600 -7.481400 21.149700 -0.531100 -8.520600 -19.417700 -0.294100 3.487400 -9.638700 1.625000 -2.430000 -0.068300 3.205300 -1.229900 0.915400 -1.147800 2.330900 18.815100 -1.021200 1.481500 7.300300 -90.591800 -3.388300 -1.630400 8.456900 -14.290700 -1.062100 0.000000 0.000000 9.798600 -7.125000 0.000000 0.000000 89.460000 -1.081800 16.505500 -12.488500 20.533200 -2.270700 0.000000 0.000000 4.324600 7.125000 0.000000 0.000000 
-8.057500 26.969500 0.077300 -123.555000 87.640400 -119.483000 -13.945400 -7.000000 -7.178200 2.407000 9.666800 27.904300 2.285500 -4.495400 -27.565100 1.770800 8.371500 23.848300 17.321400 5.426800 -5.088400 -1.392000 -7.464300 21.098500 -0.513400 -8.656900 -19.354900 -0.328900 3.685700 -10.194100 1.641500 -2.400100 -0.074900 3.215900 -1.214800 0.920100 -1.117000 2.370000 18.948800 -1.002400 1.504100 7.350200 -90.598800 -3.422400 -1.887600 8.399700 -14.198700 -1.048000 0.000000 0.000000 10.005900 -7.125000 0.000000 0.000000 89.484000 -1.092000 16.419600 -12.480700 20.521700 -2.268000 0.000000 0.000000 4.431800 7.125000 0.000000 0.000000 
-8.058700 26.968300 0.075900 -120.975000 87.617200 -116.918000 -13.869100 -6.902200 -7.228100 2.413000 9.678000 27.940000 2.283600 -4.454200 -27.560000 1.739600 8.301300 23.633100 17.390000 5.512500 -5.052600 -1.387900 -7.453900 21.067200 -0.505400 -8.756100 -19.362400 -0.351400 3.808400 -10.538300 1.650200 -2.326200 -0.052700 3.162500 -1.177500 0.914000 -0.983100 2.350300 18.970000 -0.947400 1.501200 7.366500 -90.594800 -3.486900 -1.949000 8.353300 -14.123900 -1.036600 0.000000 0.000000 10.119900 -7.125000 0.000000 0.000000 89.505300 -1.009100 16.232100 -12.428000 20.443400 -2.249600 0.000000 0.000000 4.562200 7.125000 0.000000 0.000000 
-8.057900 26.968800 0.077500 -121.656000 87.587100 -117.607000 -13.849200 -6.950400 -7.242600 2.425500 9.701200 28.014300 2.284300 -4.512300 -27.555300 1.757200 8.340900 23.754400 17.394400 5.367700 -5.043200 -1.377600 -7.427300 20.987700 -0.522500 -8.644900 -19.441200 -0.344700 3.772700 -10.437900 1.640500 -2.305900 -0.026900 3.144400 -1.168000 0.938600 -0.875100 2.417900 18.834100 -0.890000 1.533300 7.308200 -90.574200 -3.529200 -1.922600 8.312400 -14.058000 -1.026700 0.000000 0.000000 10.179800 -7.125000 0.000000 0.000000 89.520200 -0.952400 16.204800 -12.375600 20.365500 -2.231300 0.000000 0.000000 4.524700 7.125000 0.000000 0.000000 
-8.052500 26.966900 0.082400 -126.474000 87.494500 -122.474000 -13.823000 -6.816100 -7.321700 2.443900 9.735100 28.123100 2.273500 -4.827000 -27.437900 1.737100 8.295500 23.615100 17.390100 5.144400 -4.932900 -1.365500 -7.395900 20.893600 -0.526700 -8.650700 -19.490400 -0.340500 3.749700 -10.373600 1.629000 -2.389800 -0.013900 3.181500 -1.210900 0.953500 -0.910600 2.440800 18.841100 -0.911100 1.546700 7.303100 -90.531500 -3.472700 -1.921200 8.279500 -14.004800 -1.018700 0.000000 0.000000 10.212400 -7.125000 0.000000 0.000000 89.535700 -1.022800 16.340400 -12.370400 20.357900 -2.229500 0.000000 0.000000 4.358700 7.125000 0.000000 0.000000 
-8.041900 26.963000 0.090800 -133.156000 87.215300 -129.149000 -13.655400 -6.525500 -7.566800 2.462400 9.769200 28.232400 2.246700 -5.376200 -27.191300 1.670100 8.142200 23.146900 17.522600 5.057300 -4.769000 -1.354100 -7.366200 20.804900 -0.469400 -9.253400 -19.454800 -0.418700 4.153200 -11.508100 1.662600 -2.558400 -0.033300 3.263000 -1.296300 0.996200 -0.946900 2.503300 18.940900 -0.927800 1.581100 7.333100 -90.502800 -3.320400 -1.879600 8.279900 -14.005500 -1.018800 0.000000 0.000000 10.166100 -7.125000 0.000000 0.000000 89.530800 -1.188700 16.527800 -12.397000 20.397400 -2.238700 0.000000 0.000000 4.250300 7.125000 0.000000 0.000000 
-8.045700 26.958900 0.085500 -126.859000 87.349100 -122.896000 -13.672000 -6.723700 -7.453300 2.485300 9.811100 28.367000 2.288300 -4.960800 -27.511200 1.688000 8.183500 23.272800 17.533300 4.876600 -4.864600 -1.343900 -7.339600 20.725600 -0.468200 -9.029300 -19.223400 -0.513100 4.591400 -12.746600 1.674100 -2.406800 -0.058100 3.204700 -1.217400 0.882100 -0.951700 2.525700 19.071700 -0.924200 1.593300 7.386900 -90.519300 -3.248200 -2.061200 8.254600 -13.964700 -1.012700 0.000000 0.000000 10.331100 -7.125000 0.000000 0.000000 89.505200 -1.311200 16.647200 -12.406100 20.410800 -2.241900 0.000000 0.000000 4.321600 7.125000 0.000000 0.000000 
-8.038700 26.957500 0.089900 -131.376000 87.213900 -127.343000 -13.616400 -6.700800 -7.631700 2.500400 9.838600 28.455800 2.280800 -5.279500 -27.419200 1.727300 8.273300 23.547400 17.542100 4.781300 -4.846700 -1.335100 -7.316500 20.656500 -0.461100 -9.164600 -19.278700 -0.508600 4.571300 -12.689700 1.695100 -2.522600 -0.076500 3.268900 -1.276400 0.932800 -1.018300 2.426700 19.218900 -0.956600 1.544600 7.439500 -90.527300 -3.263900 -2.385600 8.178600 -13.842000 -0.994400 0.000000 0.000000 10.648000 -7.125000 0.000000 0.000000 89.495400 -1.363200 16.626400 -12.383300 20.377000 -2.234000 0.000000 0.000000 4.475400 7.125000 0.000000 0.000000 
-8.050000 26.957100 0.080100 -116.442000 87.567800 -112.357000 -13.732900 -6.953600 -7.504600 2.507200 9.850900 28.495400 2.329700 -4.327200 -27.870900 1.746300 8.316400 23.679400 17.418600 4.684700 -5.220000 -1.336300 -7.319700 20.666100 -0.524100 -8.244800 -19.090800 -0.541200 4.713500 -13.093300 1.691600 -2.201200 -0.159400 3.187400 -1.110200 0.733800 -1.056900 2.458300 18.876000 -0.980100 1.555200 7.273300 -90.536200 -3.239800 -2.763900 8.103200 -13.720000 -0.976500 0.000000 0.000000 10.954400 -7.125000 0.000000 0.000000 89.483200 -1.443900 16.663500 -12.347100 20.323100 -2.221400 0.000000 0.000000 4.539200 7.125000 0.000000 0.000000 
-8.036100 26.960000 0.092100 -131.596000 87.264300 -127.515000 -13.650700 -6.666800 -7.731200 2.505600 9.848100 28.486100 2.270700 -5.253800 -27.359000 1.735500 8.291900 23.604300 17.437700 4.735100 -4.931700 -1.338500 -7.325400 20.683100 -0.524100 -8.651500 -19.464100 -0.409200 4.106600 -11.376700 1.716800 -2.543800 -0.119100 3.375000 -1.285900 0.862000 -1.047800 2.447100 19.309500 -0.981600 1.562700 7.453700 -90.555900 -3.326400 -3.231100 8.017500 -13.581200 -0.956200 0.000000 0.000000 11.366600 -7.125000 0.000000 0.000000 89.481500 -1.441400 16.802100 -12.314800 20.275100 -2.210200 0.000000 0.000000 4.480000 7.125000 0.000000 0.000000 
-8.039100 26.962100 0.086500 -132.641000 87.423800 -128.580000 -13.891500 -6.835100 -7.641900 2.509400 9.854900 28.508200 2.281900 -5.072200 -27.455200 1.763200 8.354500 23.796000 17.187800 4.640500 -5.009100 -1.342100 -7.334900 20.711500 -0.583300 -8.089800 -19.578500 -0.314000 3.602400 -9.960600 1.678800 -2.509400 -0.101600 3.404700 -1.268500 0.805800 -1.116600 2.643600 19.012300 -0.987300 1.642300 7.359800 -90.627000 -3.423600 -3.688900 7.932400 -13.443300 -0.936400 0.000000 0.000000 11.809000 -7.125000 0.000000 0.000000 89.457700 -1.404500 16.871400 -12.306300 20.262400 -2.207200 0.000000 0.000000 4.441100 7.125000 0.000000 0.000000 
-8.034800 26.962400 0.090400 -133.201000 87.387000 -129.048000 -13.834400 -6.744200 -7.777900 2.508100 9.852600 28.500600 2.278200 -5.197900 -27.413700 1.779000 8.389800 23.904400 17.211800 4.715000 -5.074000 -1.344300 -7.340600 20.728600 -0.580700 -8.150300 -19.604800 -0.305500 3.553500 -9.823900 1.718300 -2.536100 -0.158200 3.485500 -1.281100 0.801000 -1.224000 2.497900 19.325200 -1.051900 1.578500 7.469700 -90.693900 -3.308100 -3.942500 7.895700 -13.383700 -0.927800 0.000000 0.000000 12.012200 -7.125000 0.000000 0.000000 89.441100 -1.539600 16.805100 -12.331300 20.299600 -2.215900 0.000000 0.000000 4.517800 7.125000 0.000000 0.000000 
-8.046800 26.961500 0.077500 -119.986000 87.687700 -115.868000 -13.958600 -7.046700 -7.554100 2.513700 9.862800 28.533600 2.330500 -4.295900 -27.880900 1.761500 8.350500 23.783700 17.124400 4.571500 -5.346800 -1.349500 -7.354200 20.769000 -0.632500 -7.335900 -19.448800 -0.307900 3.567200 -9.862200 1.688400 -2.246300 -0.107900 3.319400 -1.134000 0.700500 -1.202900 2.560800 19.056200 -1.031900 1.599000 7.392800 -90.686600 -3.406300 -4.026000 7.885400 -13.367000 -0.925500 0.000000 0.000000 12.062900 -7.125000 0.000000 0.000000 89.433200 -1.445800 16.789100 -12.331200 20.299500 -2.215900 0.000000 0.000000 4.546000 7.125000 0.000000 0.000000 
